<svg xmlns="http://www.w3.org/2000/svg" viewBox="0 0 40 40"><defs><style>.cls-1{fill:#2e2e2e;isolation:isolate;}.cls-2{fill:#fff;}</style></defs><title>arrow_l</title><g id="Layer_2" data-name="Layer 2"><g id="Layer_1-2" data-name="Layer 1"><g id="Layer_2-2" data-name="Layer 2"><g id="Layer_1-2-2" data-name="Layer 1-2"><path class="cls-1" d="M20,0A20,20,0,1,1,0,20,20,20,0,0,1,20,0Z"/><path class="cls-2" d="M23.72,28.74a1,1,0,0,1-1.41,0l-8-8a1,1,0,0,1,1.41-1.41l8,8A1,1,0,0,1,23.72,28.74Z"/><path class="cls-2" d="M23.72,11.26a1,1,0,0,1,0,1.41l-8,8a1,1,0,0,1-1.41-1.41l8-8A1,1,0,0,1,23.72,11.26Z"/></g></g></g></g></svg>