<svg xmlns="http://www.w3.org/2000/svg" viewBox="0 0 40 40"><defs><style>.cls-1,.cls-2{fill-rule:evenodd;}.cls-1{opacity:0.2;}.cls-2{fill:#fff;}</style></defs><title>menu</title><g id="Layer_2" data-name="Layer 2"><g id="Layer_1-2" data-name="Layer 1"><path class="cls-1" d="M20,0A20,20,0,1,1,0,20,20,20,0,0,1,20,0Z"/><path class="cls-2" d="M11.5,13.5h17a1,1,0,0,1,0,2h-17a1,1,0,0,1,0-2Z"/><path class="cls-2" d="M11.5,19h17a1,1,0,0,1,0,2h-17a1,1,0,0,1,0-2Z"/><path class="cls-2" d="M11.5,24.5h17a1,1,0,0,1,0,2h-17a1,1,0,0,1,0-2Z"/></g></g></svg>