<svg xmlns="http://www.w3.org/2000/svg" viewBox="0 0 40 40"><defs><style>.cls-1{fill:#2e2e2e;isolation:isolate;}.cls-2{fill:#fff;}</style></defs><title>search</title><g id="Layer_2" data-name="Layer 2"><g id="Layer_1-2" data-name="Layer 1"><g id="Layer_2-2" data-name="Layer 2"><g id="Layer_1-2-2" data-name="Layer 1-2"><path class="cls-1" d="M20,0A20,20,0,1,1,0,20,20,20,0,0,1,20,0Z"/><path class="cls-2" d="M28.37,28.34a1,1,0,0,1-1.41,0l-4-4a1,1,0,0,1,1.41-1.41l4,4A1,1,0,0,1,28.37,28.34Z"/><path class="cls-2" d="M18.57,25.82a7.22,7.22,0,1,1,7.22-7.23A7.23,7.23,0,0,1,18.57,25.82Zm0-12.64A5.41,5.41,0,1,0,24,18.59,5.42,5.42,0,0,0,18.57,13.18Z"/></g></g></g></g></svg>